<svg xmlns="http://www.w3.org/2000/svg" viewBox="0 0 126 132" fill="none">
  <path
    fill="#E0E0DE"
    d="M64 10C49 25 31 47 24 70c-7 23 6 39 39 42 31-1 45-18 40-41-5-24-23-47-39-61Z"
  />
  <g stroke="#22211F" stroke-width="2.5" stroke-linecap="round" stroke-linejoin="round">
    <path d="M50 62c3 4 7 4 10 0M73 62c3 4 7 4 10 0"/>
  </g>
  <g stroke="#22211F" stroke-width="3" stroke-linecap="round" stroke-linejoin="round">
    <path d="M64 98h9c5 0 8 3 8 8v11c0 6 3 11 9 14h9"/>
    <path d="M84 98h9c5 0 8 3 8 8v11c0 6 3 11 9 14h7"/>
  </g>
</svg>
