<svg xmlns="http://www.w3.org/2000/svg" viewBox="0 0 126 132" fill="none">
  <path
    fill="#C4A882"
    stroke="#8F7355"
    stroke-width="1.5"
    stroke-linejoin="round"
    d="M64 10C49 25 31 47 24 70c-7 23 6 39 39 42 31-1 45-18 40-41-5-24-23-47-39-61Z"
  />
  <g
    stroke="#8F7355"
    stroke-width="1.1"
    stroke-linecap="round"
    opacity="0.5"
  >
    <path d="M52 36c-1 8-1.5 14-2 14" />
    <path d="M58 28c-1 12-1.5 20-2 22" />
    <path d="M64 22c0 14 0.5 26 1 28" />
    <path d="M70 28c1 12 1.5 20 2 22" />
    <path d="M76 36c1 8 1.5 14 2 14" />
    <path d="M52 76c0 4 0.5 8 1 10" />
    <path d="M58 76c0 4 0.5 7 1 9" />
    <path d="M64 76c0 5 0.5 9 1 11" />
    <path d="M70 76c0 4-0.5 7-1 9" />
    <path d="M76 76c0 4-0.5 8-1 10" />
  </g>
  <g stroke="#22211F" stroke-width="2.5" stroke-linecap="round" stroke-linejoin="round">
    <path d="M50 62c3 4 7 4 10 0M73 62c3 4 7 4 10 0"/>
  </g>
  <g stroke="#22211F" stroke-width="3" stroke-linecap="round" stroke-linejoin="round">
    <path d="M64 98h9c5 0 8 3 8 8v11c0 6 3 11 9 14h9"/>
    <path d="M84 98h9c5 0 8 3 8 8v11c0 6 3 11 9 14h7"/>
  </g>
</svg>
